<svg id="Layer_1" data-name="Layer 1" xmlns="http://www.w3.org/2000/svg" viewBox="0 0 543.56 757.37"><title>Logo</title><path d="M330.65,522.69a388.68,388.68,0,0,1-2-46.15q.18-11.57,1.06-23.09c.27-3.54.58-7.09.95-10.62.18-1.77.38-3.54.58-5.31.14-1.17.28-2.35.43-3.53.11-.85.36-2.63.1-.76a390.17,390.17,0,0,1,23.14-88.38q1-2.49,2-5c.12-.29,1.52-3.65.85-2.07-.58,1.38.56-1.3.54-1.24,1.53-3.53,3.11-7.05,4.75-10.53,3-6.36,5.94-12.79,10-18.56.44-.62.87-1.24,1.33-1.84-.22.28-1.61,1.78-.29.48s2.32-2.62,3.58-3.85q1.56-1.53,3.27-2.93c-2.45,2,.74-.31,1.75-.86.59-.33,1.18-.62,1.78-.92-.34.17-2.28,1.59-1,.57a6.61,6.61,0,0,1,1.83-.48c-.1-.08-3.35.56-1.45.26a5.38,5.38,0,0,1,1.84,0c-1.39-1.24-2.94-.09-.85.16-.28,0-2.64-1.37-1-.34,1.88,1.21-1.47-1.92-.06-.15.42.52,1,1,1.43,1.5-.36-.4-1.19-2.14-.64-.6.21.58,1.92,4.13,1.33,2.45s.84,2.95,1,3.53c.46,1.66.84,3.33,1.21,5,1.53,6.92,3,13.84,4.81,20.7a307.74,307.74,0,0,0,14.51,42.68c11.63,27.46,28.94,54.57,53.8,71.8,13.75,9.53,31.13,14.46,47.64,10.3,15.11-3.8,27.11-15.17,38-25.69,37-35.72,65.12-79.31,94.41-121.21,7.23-10.35,14.55-20.63,22.14-30.72l2.62-3.47c.39-.52,2.79-3.64,1.75-2.29l1.77-2.26c1.19-1.51,2.38-3,3.59-4.51q5.84-7.26,11.95-14.29a342,342,0,0,1,25.12-26.1q6.74-6.27,13.87-12.08c1.1-.89,2.22-1.77,3.32-2.65-2.81,2.26.94-.71,1.64-1.22q3.71-2.76,7.52-5.38c5.13-3.52,10.4-6.8,15.79-9.9l-25-19.2c-13.18,82.1-26.56,164.18-39.44,246.33-12.92,82.42-24.86,165.08-32.15,248.21-4.07,46.48-6.63,93.1-7.11,139.77-.09,8.89,7.89,17.4,17,17,9.29-.42,16.9-7.47,17-17,.84-82.2,8.24-164.17,18.69-245.66,4.9-38.18,10.91-78.9,17.07-118.64,6.32-40.77,12.93-81.5,19.46-122.23Q748.87,252.44,760,183.07c1.11-7-.22-13.33-6.1-17.87A17.09,17.09,0,0,0,735,163.87c-45.62,26.21-79.73,66.54-110.18,108.62-15.17,21-29.53,42.49-44.55,63.55q-5.53,7.75-11.19,15.4-2.62,3.53-5.27,7c-.59.77-1.19,1.54-1.78,2.32.15-.2,1.62-2.08.43-.56-1,1.34-2.09,2.69-3.14,4-8,10-16.25,19.85-25,29.19q-6.42,6.85-13.22,13.35-3.47,3.3-7,6.49c-1.22,1.08-2.46,2.15-3.71,3.19-.06.05-2.18,1.67-.84.69s-1.34.89-1.58,1.05c-1.57,1.05-3.19,2-4.85,2.88-.14.07-2.52,1.08-.9.45s-.86.23-1,.26c-1,.27-4.67,1-1.74.65a40.62,40.62,0,0,1-6.24,0c2.91.13-.48-.18-1.64-.47-1.54-.4-3-.93-4.53-1.44,2.62.88-1.73-.88-2.54-1.31q-2.53-1.37-4.94-3c-.58-.38-3.87-2.73-1.92-1.23-1.53-1.18-3-2.46-4.41-3.76-2.63-2.38-5.11-4.93-7.5-7.56-1.11-1.22-2.19-2.45-3.26-3.7-.71-.83-1.4-1.68-2.1-2.52,0-.05-1.73-2.15-.7-.85s-.63-.83-.67-.88l-1.45-2c-1.11-1.55-2.21-3.12-3.27-4.7A184.22,184.22,0,0,1,443.17,370q-2.22-4.41-4.25-8.93c-.3-.67-2.22-5.24-1.22-2.77q-1.09-2.68-2.13-5.4A315.53,315.53,0,0,1,423,310.69c-3.59-15.54-6.39-31.28-20.35-41.12-15.13-10.67-33.44-4.61-46.36,6.21-11.39,9.54-18.07,23.1-24.13,36.33-26.8,58.53-40,123.14-37.2,187.53.34,7.7.93,15.39,1.72,23.05.91,8.82,7.17,17.44,17,17,8.43-.38,18-7.53,17-17Z" transform="translate(-268.06 -161.64)"/><path d="M358.29,617.52c25.95,0,51.9.19,77.84.34q21.36.12,42.73.23l17.14,0h6.86c1.32,0,2.7.14,4,0,1.9-.15-1.56-.42-2.22-.85-2.42-1.58-3.12-3.66-4.17-6-.84-1.9,0,0-.07,1,0,.56-.44,3.36-.05,1.19s-.26.94-.37,1.48q-.33,1.51-.72,3c-.59,2.26-1.35,4.44-2.09,6.64-.18.55-1.19,3,0,.24-.5,1.19-1.07,2.35-1.64,3.5a99.67,99.67,0,0,1-6.66,11.44c-1.17,1.74-2.4,3.44-3.64,5.14.41-.57,1.83-2.27-.26.33-1,1.24-2,2.48-3,3.7-12.61,14.91-27.28,28.08-41.14,41.8q-46.91,46.39-91.93,94.64-25.31,27.12-50,54.78c-7.82,8.77-16,17.53-22.15,27.62a56.8,56.8,0,0,0-8.06,38.61c1.21,8.86,13.08,14.4,20.92,11.87Q392.35,885.27,493,846q101.76-39.74,201-85.54,55-25.41,109.19-52.68c8-4,10.86-15.88,6.1-23.26-5.24-8.14-14.74-10.38-23.26-6.1q-95.61,48.14-194,90.49c-16.66,7.17-30.32,12.92-47.44,20Q520.11,799,495.43,808.7q-49.79,19.63-100.15,37.78-57,20.53-114.75,39.13l20.91,11.87c.54,4,.78-4.71.33-2.59s.36-1.06.49-1.54a37.53,37.53,0,0,1,1.21-3.72c-1.15,3,1.43-2.56,1.77-3.16,1.37-2.38,2.92-4.64,4.51-6.89.23-.33,2-2.52.37-.52.69-.87,1.39-1.72,2.1-2.57,1.4-1.68,2.84-3.32,4.28-5q6.06-6.85,12.19-13.65,22.83-25.46,46.18-50.44,46-49.25,94.07-96.59c14.22-14,29.22-27.53,41.54-43.32s25-36.36,23.91-57.17c-.81-15.78-12.19-25.45-27.52-26.18-5.14-.24-10.33,0-15.48,0q-20.68,0-41.37-.19c-30.58-.18-61.15-.48-91.73-.42-8.89,0-17.41,7.81-17,17s7.47,17,17,17Z" transform="translate(-268.06 -161.64)"/></svg>