<?xml version="1.0" standalone="no"?>
<!DOCTYPE svg PUBLIC "-//W3C//DTD SVG 20010904//EN"
 "http://www.w3.org/TR/2001/REC-SVG-20010904/DTD/svg10.dtd">
<svg version="1.0" xmlns="http://www.w3.org/2000/svg"
 width="3157.000000pt" height="3157.000000pt" viewBox="0 0 3157.000000 3157.000000"
 preserveAspectRatio="xMidYMid meet">
<metadata>
Created by potrace 1.11, written by Peter Selinger 2001-2013
</metadata>
<g transform="translate(0.000000,3157.000000) scale(0.100000,-0.100000)"
fill="#000000" stroke="none">
<path d="M24145 31554 c-116 -20 -189 -52 -368 -162 -37 -23 -70 -42 -72 -42
-12 0 -405 -259 -575 -379 -188 -132 -686 -514 -730 -561 -3 -3 -52 -45 -110
-95 -58 -49 -118 -102 -135 -117 -16 -15 -41 -37 -55 -48 -154 -131 -716 -680
-865 -845 -15 -16 -69 -75 -120 -130 -179 -193 -331 -366 -572 -651 -23 -27
-89 -107 -148 -179 -58 -71 -114 -139 -123 -150 -10 -11 -42 -51 -72 -90 -30
-38 -60 -77 -67 -85 -274 -341 -759 -994 -1135 -1528 -26 -37 -52 -74 -58 -82
-6 -8 -69 -98 -140 -200 -71 -102 -158 -228 -195 -280 -36 -52 -158 -228 -270
-390 -112 -162 -213 -308 -225 -325 -12 -16 -139 -199 -283 -405 -299 -427
-563 -798 -747 -1045 -69 -93 -146 -197 -170 -229 -24 -33 -49 -67 -56 -75 -7
-9 -61 -79 -120 -156 -101 -132 -292 -374 -304 -385 -3 -3 -43 -52 -90 -110
-46 -58 -94 -116 -106 -130 -12 -14 -77 -90 -145 -170 -67 -80 -125 -147 -128
-150 -3 -3 -55 -61 -116 -130 -60 -69 -119 -134 -130 -146 -11 -12 -67 -72
-125 -135 -119 -129 -556 -568 -670 -673 -41 -38 -97 -90 -125 -115 -27 -26
-84 -76 -125 -111 -41 -36 -83 -73 -95 -84 -31 -28 -182 -129 -260 -172 -75
-43 -142 -70 -190 -78 -16 -3 -43 -9 -60 -14 -56 -16 -212 -5 -310 22 -196 53
-498 224 -688 391 -130 113 -280 265 -442 446 -215 239 -437 558 -667 954
-187 323 -406 784 -528 1110 -22 61 -44 117 -47 125 -3 8 -7 20 -9 25 -2 6
-39 114 -82 240 -67 199 -156 478 -167 525 -2 8 -19 71 -38 140 -51 183 -103
382 -127 485 -12 50 -34 144 -50 210 -15 66 -31 136 -35 155 -30 153 -120 489
-161 605 -14 39 -27 77 -29 85 -6 25 -70 170 -115 260 -140 278 -351 507 -605
653 -130 75 -300 136 -425 152 -30 4 -64 9 -75 11 -11 3 -64 4 -117 5 -264 0
-495 -59 -779 -201 -86 -42 -264 -152 -315 -193 -297 -240 -448 -403 -638
-692 -129 -195 -209 -338 -347 -624 -145 -299 -134 -275 -210 -446 -34 -77
-69 -158 -79 -180 -10 -22 -30 -69 -45 -105 -14 -36 -33 -79 -41 -97 -28 -61
-186 -458 -220 -553 -19 -52 -38 -104 -43 -115 -31 -72 -112 -303 -201 -575
-92 -277 -123 -380 -231 -750 -28 -97 -99 -362 -104 -388 -2 -13 -11 -46 -19
-75 -8 -29 -17 -63 -20 -77 -2 -14 -18 -81 -34 -150 -26 -105 -53 -220 -57
-240 -1 -3 -7 -30 -13 -60 -7 -30 -14 -64 -17 -75 -6 -27 -45 -224 -51 -255
-3 -14 -14 -68 -24 -120 -16 -81 -77 -432 -96 -554 -3 -21 -7 -47 -9 -57 -2
-10 -13 -87 -25 -171 -11 -84 -25 -182 -30 -218 -9 -61 -15 -112 -25 -205 -5
-47 -14 -126 -20 -175 -2 -19 -7 -62 -10 -95 -3 -33 -8 -85 -12 -115 -3 -30
-7 -71 -8 -90 -2 -32 -12 -158 -21 -270 -2 -25 -6 -92 -9 -150 -4 -58 -8 -130
-10 -160 -12 -176 -19 -498 -19 -880 0 -465 6 -685 30 -1035 3 -49 7 -114 9
-144 2 -30 6 -83 9 -118 3 -35 9 -93 12 -130 15 -175 24 -253 35 -316 45 -257
207 -486 412 -581 116 -53 284 -68 420 -35 249 60 461 233 544 446 24 59 27
83 27 183 0 63 -3 149 -7 190 -5 41 -10 98 -12 125 -3 28 -7 75 -10 105 -5 54
-10 127 -20 300 -3 47 -7 119 -10 160 -27 440 -27 1198 0 1725 5 96 15 251 20
305 3 25 7 83 10 129 3 46 7 100 10 120 2 20 6 68 10 106 3 39 8 86 10 105 2
19 7 62 10 95 3 33 8 74 10 90 2 17 9 73 15 125 6 52 13 106 15 120 2 14 7 48
10 75 4 28 8 57 10 65 2 8 7 35 10 60 3 25 8 57 11 73 2 15 6 42 9 60 3 17 7
43 10 57 3 14 7 41 10 60 28 170 115 622 149 770 8 36 17 76 19 90 3 14 10 45
17 70 7 25 13 52 15 60 19 99 135 547 195 755 18 61 40 139 50 175 24 85 135
438 157 500 3 8 36 103 73 210 167 478 344 922 510 1275 103 220 127 271 183
385 124 252 261 478 347 570 123 132 209 214 266 251 34 22 69 41 76 43 7 1
19 5 26 9 6 5 17 5 22 2 18 -11 71 -128 96 -210 20 -65 91 -360 108 -448 2
-12 10 -44 16 -72 6 -27 14 -61 17 -75 2 -14 20 -92 40 -175 19 -82 36 -157
38 -165 2 -8 11 -44 20 -80 9 -36 19 -74 21 -85 2 -11 26 -101 54 -200 28 -99
53 -187 55 -195 9 -38 102 -333 157 -495 274 -815 632 -1600 973 -2135 30 -47
58 -92 62 -100 19 -43 339 -501 363 -520 3 -3 19 -23 36 -45 16 -22 39 -51 50
-65 12 -14 49 -58 83 -99 198 -238 480 -519 711 -707 153 -125 371 -284 389
-284 5 0 11 -3 13 -7 5 -12 116 -78 233 -139 307 -159 643 -259 980 -290 49
-5 307 -4 355 1 315 32 563 110 839 263 100 55 317 194 331 211 3 3 32 26 65
50 63 47 225 180 262 215 11 12 54 50 94 86 281 250 823 799 1100 1115 24 27
65 72 90 100 37 41 236 272 301 350 339 406 668 827 1008 1290 63 86 144 197
180 245 62 85 241 337 423 595 47 66 99 140 116 165 84 119 358 514 471 679
25 36 107 154 181 261 75 107 162 233 194 280 90 130 384 550 419 597 17 23
55 77 85 120 44 63 314 439 343 478 4 6 105 141 224 300 273 365 630 813 845
1060 69 79 185 211 194 221 5 6 37 41 70 78 313 355 802 842 1135 1131 30 26
71 61 90 78 19 16 48 42 64 56 l29 26 -6 -40 c-4 -22 -9 -58 -12 -80 -4 -22
-8 -51 -11 -65 -2 -14 -7 -41 -10 -60 -2 -19 -9 -57 -14 -85 -5 -27 -12 -72
-15 -100 -4 -27 -8 -57 -11 -66 -3 -9 -7 -33 -9 -53 -3 -20 -18 -118 -35 -219
-76 -470 -119 -736 -125 -777 -3 -25 -8 -52 -10 -60 -2 -8 -7 -35 -10 -60 -3
-25 -15 -97 -25 -160 -10 -63 -21 -128 -23 -145 -3 -16 -10 -57 -15 -90 -11
-58 -18 -107 -27 -170 -3 -16 -7 -41 -10 -55 -3 -14 -8 -45 -11 -70 -3 -25 -8
-54 -10 -65 -2 -11 -7 -40 -10 -65 -3 -25 -7 -47 -9 -50 -2 -3 -6 -29 -10 -59
-4 -30 -9 -63 -11 -75 -5 -25 -33 -196 -40 -246 -6 -41 -21 -133 -29 -175 -3
-16 -8 -48 -11 -70 -3 -22 -9 -62 -14 -90 -5 -27 -12 -72 -16 -100 -3 -27 -7
-52 -9 -55 -2 -3 -6 -29 -10 -59 -4 -30 -9 -63 -11 -75 -3 -12 -7 -34 -9 -49
-11 -77 -16 -105 -20 -126 -2 -13 -7 -43 -10 -68 -2 -24 -7 -48 -9 -51 -2 -4
-7 -34 -11 -67 -3 -32 -8 -62 -10 -65 -2 -3 -6 -26 -9 -50 -3 -25 -12 -88 -21
-140 -9 -52 -18 -108 -21 -125 -2 -16 -9 -55 -14 -85 -5 -30 -12 -75 -15 -100
-3 -25 -12 -81 -20 -125 -13 -73 -20 -114 -30 -185 -6 -41 -46 -283 -51 -315
-3 -16 -7 -43 -9 -60 -2 -16 -17 -111 -34 -210 -16 -99 -32 -200 -36 -225 -3
-25 -15 -97 -25 -160 -11 -63 -22 -133 -25 -155 -2 -22 -7 -51 -9 -65 -6 -28
-34 -205 -42 -260 -3 -19 -12 -71 -19 -115 -8 -44 -17 -102 -21 -130 -6 -48
-8 -59 -18 -115 -3 -14 -8 -43 -11 -65 -3 -22 -10 -65 -15 -95 -5 -30 -11 -72
-14 -92 -14 -92 -18 -118 -31 -198 -8 -47 -16 -103 -20 -125 -3 -22 -12 -83
-21 -135 -20 -120 -22 -136 -29 -185 -3 -22 -10 -62 -15 -90 -9 -47 -18 -106
-24 -150 -2 -11 -6 -40 -10 -65 -4 -25 -10 -58 -12 -75 -2 -16 -6 -41 -9 -55
-3 -14 -7 -45 -10 -70 -3 -25 -9 -67 -15 -95 -5 -27 -12 -67 -15 -87 -3 -21
-7 -55 -10 -75 -3 -21 -10 -60 -15 -88 -5 -27 -12 -70 -15 -95 -7 -49 -33
-217 -41 -265 -3 -16 -7 -43 -9 -60 -4 -30 -27 -179 -45 -290 -6 -33 -12 -73
-15 -90 -2 -16 -9 -59 -14 -95 -5 -36 -13 -85 -16 -110 -3 -25 -8 -52 -10 -60
-2 -8 -7 -35 -10 -60 -3 -25 -8 -57 -11 -72 -9 -60 -13 -87 -29 -193 -9 -60
-18 -121 -21 -135 -2 -14 -9 -57 -15 -97 -5 -39 -12 -80 -14 -91 -2 -11 -6
-42 -10 -69 -3 -26 -10 -70 -15 -98 -5 -27 -12 -70 -15 -95 -3 -25 -10 -70
-15 -100 -5 -30 -12 -75 -15 -100 -3 -25 -10 -70 -15 -100 -9 -55 -17 -107
-25 -173 -3 -19 -13 -90 -24 -158 -10 -68 -22 -146 -26 -172 -3 -27 -8 -57
-10 -66 -2 -10 -6 -42 -10 -71 -4 -29 -8 -60 -10 -69 -1 -9 -6 -36 -9 -61 -3
-25 -8 -54 -10 -65 -2 -11 -7 -42 -10 -70 -4 -27 -9 -61 -11 -75 -5 -33 -25
-176 -31 -220 -3 -19 -7 -46 -9 -60 -4 -21 -47 -327 -70 -490 -3 -19 -7 -46
-10 -60 -5 -29 -15 -109 -20 -158 -2 -18 -6 -45 -9 -60 -6 -29 -8 -46 -26
-182 -12 -93 -15 -115 -25 -175 -3 -22 -8 -56 -10 -75 -8 -64 -17 -135 -21
-154 -2 -11 -6 -42 -9 -70 -3 -28 -8 -62 -10 -76 -7 -50 -31 -219 -40 -295 -4
-27 -8 -61 -11 -75 -2 -14 -6 -49 -10 -78 -3 -29 -7 -61 -9 -70 -1 -9 -6 -42
-10 -72 -3 -30 -8 -66 -10 -80 -2 -14 -6 -47 -10 -75 -3 -27 -7 -61 -10 -75
-3 -14 -7 -50 -10 -81 -3 -31 -7 -64 -9 -75 -2 -10 -7 -50 -12 -89 -4 -38 -8
-72 -9 -75 -1 -3 -5 -34 -9 -70 -4 -36 -9 -76 -11 -90 -2 -14 -9 -63 -15 -110
-6 -47 -12 -101 -15 -120 -2 -19 -7 -57 -10 -85 -4 -27 -8 -61 -10 -75 -2 -14
-6 -50 -10 -80 -3 -30 -8 -73 -11 -95 -13 -110 -17 -140 -33 -270 -6 -44 -13
-105 -16 -135 -3 -30 -8 -72 -10 -92 -6 -44 -11 -91 -20 -168 -4 -30 -8 -66
-10 -80 -2 -14 -6 -54 -10 -90 -3 -36 -8 -76 -10 -90 -2 -14 -7 -52 -10 -85
-4 -33 -8 -73 -10 -90 -2 -16 -7 -57 -10 -90 -4 -33 -8 -71 -10 -85 -6 -45
-15 -124 -20 -180 -3 -30 -10 -91 -15 -135 -5 -44 -12 -107 -15 -140 -3 -33
-7 -76 -9 -95 -3 -19 -8 -64 -11 -100 -4 -36 -8 -77 -10 -93 -2 -15 -7 -62
-10 -105 -4 -42 -9 -84 -10 -93 -2 -9 -6 -52 -10 -95 -4 -43 -8 -90 -10 -104
-4 -31 -14 -126 -20 -200 -3 -30 -7 -77 -10 -105 -7 -57 -10 -90 -19 -190 -4
-38 -9 -88 -11 -110 -2 -22 -7 -69 -10 -105 -5 -60 -10 -108 -20 -215 -2 -22
-6 -76 -10 -120 -3 -44 -8 -96 -10 -115 -3 -19 -7 -66 -10 -105 -3 -38 -7 -86
-9 -105 -3 -31 -7 -69 -21 -250 -2 -25 -7 -79 -10 -120 -12 -132 -13 -153 -20
-245 -3 -49 -8 -110 -10 -135 -3 -25 -7 -81 -10 -125 -4 -44 -8 -100 -10 -125
-2 -25 -6 -88 -10 -140 -3 -52 -8 -115 -10 -140 -2 -25 -7 -90 -10 -145 -4
-55 -8 -120 -10 -145 -1 -25 -6 -92 -9 -150 -4 -58 -9 -130 -11 -160 -2 -30
-7 -104 -10 -165 -4 -60 -8 -130 -10 -155 -3 -25 -7 -101 -10 -170 -3 -69 -8
-150 -10 -180 -2 -30 -7 -116 -11 -190 -5 -118 -8 -157 -13 -231 -1 -9 -25
-25 -58 -39 -32 -13 -94 -40 -138 -61 -116 -53 -126 -58 -625 -279 -250 -111
-473 -210 -495 -220 -22 -10 -78 -35 -125 -55 -47 -20 -98 -43 -115 -50 -91
-42 -683 -298 -1185 -512 -316 -135 -591 -252 -610 -261 -19 -8 -60 -25 -90
-37 -30 -12 -127 -53 -215 -90 -88 -37 -224 -94 -302 -126 -79 -32 -163 -68
-187 -79 -25 -11 -51 -20 -58 -20 -8 0 -18 -4 -23 -9 -6 -5 -111 -50 -235
-100 -124 -51 -239 -99 -257 -107 -17 -7 -34 -14 -37 -14 -3 0 -25 -9 -49 -19
-45 -20 -240 -100 -297 -121 -19 -7 -60 -24 -90 -38 -30 -13 -59 -25 -65 -27
-5 -1 -21 -7 -35 -12 -14 -6 -95 -39 -180 -73 -146 -58 -175 -70 -258 -106
-18 -8 -37 -14 -42 -14 -5 0 -33 -11 -62 -24 -29 -13 -93 -40 -143 -59 -49
-20 -232 -91 -405 -160 -173 -69 -385 -152 -470 -185 -85 -33 -220 -86 -300
-117 -246 -96 -532 -206 -600 -231 -36 -13 -74 -28 -85 -33 -26 -13 -545 -211
-565 -216 -8 -2 -152 -56 -320 -120 -168 -64 -316 -120 -330 -124 -38 -12
-457 -168 -515 -192 -35 -14 -649 -237 -1015 -369 -58 -21 -168 -60 -245 -88
-438 -158 -986 -351 -1450 -511 -77 -27 -187 -65 -245 -86 -58 -20 -109 -38
-115 -39 -5 -2 -17 -6 -25 -9 -17 -7 -274 -94 -645 -218 -132 -45 -247 -83
-255 -86 -73 -27 -454 -152 -456 -150 -2 1 11 18 29 37 18 19 66 73 107 120
126 143 338 380 420 470 42 47 99 110 125 140 27 30 51 57 54 60 3 3 40 43 81
90 41 46 82 91 90 100 12 13 112 123 195 216 41 45 171 188 195 214 14 15 61
67 105 116 44 48 99 108 122 132 23 24 54 58 69 75 15 18 78 86 139 152 60 66
128 140 150 164 55 60 51 56 135 146 105 114 188 202 326 351 66 71 147 158
180 193 92 99 314 336 405 432 253 267 348 368 372 394 25 26 217 227 407 426
137 143 453 470 525 545 44 45 217 223 385 395 412 424 1882 1893 2209 2209
795 766 1142 1143 1507 1635 84 113 262 377 317 470 23 39 46 78 52 87 5 9 17
29 26 45 8 15 29 53 46 83 79 141 229 466 247 535 2 6 6 17 9 25 34 90 108
367 122 455 3 22 8 54 11 70 12 68 15 108 19 280 6 297 -35 483 -153 685 -148
254 -398 434 -707 509 -76 18 -96 22 -205 37 -25 3 -580 8 -1235 10 -654 2
-1482 6 -1840 9 -357 3 -1235 7 -1950 10 -1107 4 -1310 2 -1369 -10 -285 -60
-504 -265 -573 -536 -3 -13 -7 -70 -9 -126 -10 -294 163 -570 431 -688 122
-55 93 -53 1555 -60 745 -3 1661 -8 2035 -10 374 -3 1100 -7 1614 -10 513 -2
935 -6 938 -8 2 -2 -21 -78 -51 -168 -75 -226 -207 -479 -394 -753 -87 -128
-213 -295 -262 -346 -8 -9 -35 -40 -60 -70 -25 -30 -52 -61 -60 -70 -8 -9 -49
-54 -90 -101 -41 -46 -106 -118 -145 -159 -115 -124 -745 -750 -985 -980 -385
-367 -1870 -1859 -2394 -2403 -43 -45 -174 -181 -291 -302 -117 -121 -237
-245 -266 -277 -30 -31 -122 -127 -205 -215 -84 -87 -169 -177 -191 -200 -21
-23 -104 -110 -184 -193 -178 -189 -195 -206 -349 -371 -69 -73 -159 -169
-201 -213 -91 -98 -228 -244 -289 -310 -25 -27 -61 -65 -80 -86 -110 -118
-242 -261 -276 -299 -21 -24 -52 -58 -69 -75 -16 -17 -73 -78 -125 -135 -52
-57 -108 -118 -125 -136 -16 -18 -64 -70 -106 -116 -42 -46 -87 -96 -100 -110
-13 -14 -60 -65 -104 -114 -44 -48 -93 -103 -110 -120 -16 -18 -64 -70 -105
-116 -41 -46 -84 -93 -95 -105 -11 -12 -54 -59 -95 -104 -41 -46 -84 -94 -96
-107 -12 -12 -52 -57 -90 -100 -38 -43 -80 -89 -94 -104 -14 -15 -36 -40 -49
-56 -32 -37 -264 -297 -271 -303 -9 -8 -244 -272 -271 -304 -13 -16 -29 -34
-34 -40 -9 -10 -164 -193 -204 -241 -9 -11 -30 -38 -46 -60 -16 -22 -32 -42
-35 -45 -31 -28 -257 -360 -308 -451 -119 -214 -232 -492 -256 -629 -2 -14 -9
-43 -14 -65 -6 -22 -13 -53 -16 -70 -15 -100 -19 -122 -22 -140 -6 -29 -16
-220 -16 -295 -1 -75 10 -263 17 -300 2 -14 7 -41 9 -62 21 -146 136 -300 295
-395 67 -41 185 -88 241 -98 17 -3 45 -8 63 -11 78 -15 193 -4 293 26 54 17
104 32 109 33 41 12 698 228 1280 422 892 297 1431 482 2310 790 105 36 210
73 235 82 25 8 54 19 65 23 26 11 104 39 405 145 135 48 295 105 355 127 61
22 146 53 190 68 76 27 793 289 960 351 44 17 121 45 170 63 313 115 1169 438
1695 641 195 75 382 147 415 160 116 43 812 317 945 371 74 31 140 57 145 58
6 2 24 8 40 15 17 7 138 55 270 107 132 52 249 99 260 104 11 5 70 29 130 54
266 106 593 239 632 257 24 10 46 19 49 19 3 0 20 7 37 15 18 7 82 34 142 59
216 87 655 268 730 301 17 7 125 52 240 100 116 48 224 93 240 100 17 8 118
50 225 95 107 44 204 85 215 90 11 5 90 39 175 75 85 37 169 72 185 80 17 7
59 25 95 40 89 37 843 362 905 390 28 13 78 35 112 49 35 14 89 38 120 52 32
15 72 32 88 39 17 7 185 82 375 165 190 84 360 159 378 167 l33 14 -6 -238
c-17 -745 -17 -965 1 -1043 52 -236 220 -436 441 -525 84 -34 116 -40 238 -39
134 0 206 17 334 80 158 78 293 229 349 391 39 111 40 134 47 593 3 217 8 458
10 535 8 307 17 604 20 685 2 47 4 113 4 148 l1 63 98 45 c53 25 115 54 137
64 22 10 81 37 130 60 50 23 108 50 130 60 37 16 364 168 565 263 47 21 112
52 145 67 33 15 105 49 160 75 55 26 132 62 170 80 39 18 141 67 229 109 87
42 160 76 161 76 2 0 92 43 200 95 108 52 198 95 199 95 2 0 106 50 232 111
126 61 288 139 359 174 1019 492 2108 1037 2160 1080 62 51 78 67 111 110 52
68 110 184 115 230 1 6 5 17 10 26 28 54 33 279 7 372 -68 248 -285 452 -538
506 -84 18 -249 12 -344 -13 -61 -16 -217 -88 -631 -295 -759 -378 -1384 -684
-1910 -936 -60 -29 -177 -85 -260 -125 -82 -40 -177 -85 -210 -100 -33 -15
-127 -60 -210 -100 -186 -89 -347 -166 -550 -260 -33 -15 -114 -54 -180 -85
-66 -31 -145 -68 -175 -82 -30 -14 -92 -43 -137 -64 -46 -21 -85 -39 -89 -39
-6 0 -1 113 21 430 9 116 13 186 20 300 3 58 8 125 10 150 2 25 7 88 10 140 3
52 7 115 10 140 2 25 7 88 10 140 4 52 8 111 10 130 5 52 17 208 20 260 2 25
6 79 10 120 3 41 8 98 10 125 4 48 14 162 20 235 2 19 6 69 9 110 6 68 9 106
21 240 2 25 7 79 10 120 3 41 8 86 10 100 2 14 7 68 11 120 3 52 8 102 9 111
2 9 6 52 10 95 3 43 8 95 10 114 3 19 7 67 10 105 3 39 8 86 11 105 2 20 6 60
9 90 3 30 7 75 9 100 5 45 15 141 21 209 2 20 6 61 9 91 4 30 8 78 11 105 7
65 15 141 20 185 2 19 6 58 9 85 10 95 17 160 21 195 2 19 7 64 11 100 3 36 7
72 9 80 1 8 6 51 10 95 4 44 8 87 10 95 2 8 6 49 10 90 4 41 8 77 10 80 2 3 6
43 10 90 4 47 8 87 10 90 2 3 6 43 10 90 4 47 8 87 10 90 2 3 6 39 10 80 4 41
9 83 10 92 2 9 6 45 10 80 3 35 7 74 10 88 4 23 6 43 20 168 3 26 10 79 15
117 5 39 12 95 15 125 5 50 9 83 20 160 2 14 6 50 10 80 7 65 15 126 20 160 2
14 7 48 10 75 8 70 16 136 20 165 2 14 7 52 11 85 3 33 8 67 9 76 2 9 6 40 10
70 3 30 8 65 10 79 2 14 7 50 10 80 3 30 8 66 10 80 2 14 7 45 10 70 3 25 10
79 16 120 17 127 18 133 24 185 4 28 8 61 10 75 2 14 7 48 11 75 3 28 8 57 9
65 2 9 6 43 10 75 4 33 9 68 11 79 2 10 6 44 9 75 4 31 8 63 11 72 3 9 7 36 9
59 5 50 14 115 20 150 2 14 7 43 10 65 2 22 10 74 16 115 14 100 17 126 24
185 4 28 8 57 10 65 2 8 7 39 10 69 4 30 8 61 10 70 1 9 6 39 9 66 7 52 8 57
25 170 6 39 13 86 15 105 6 40 35 242 41 280 2 14 7 45 10 70 3 25 13 88 21
140 8 52 17 114 20 136 3 23 6 50 8 60 2 11 7 44 11 74 4 30 9 64 11 75 5 25
11 66 19 125 3 25 7 56 10 70 2 14 6 41 9 60 5 40 13 91 26 170 5 30 12 75 15
100 3 25 12 86 20 135 8 50 17 106 19 125 2 19 9 64 15 100 6 36 13 83 16 105
10 64 15 96 25 155 5 30 12 75 15 100 8 62 11 81 29 190 8 52 18 115 21 140 3
25 10 70 15 100 12 69 17 104 25 155 3 23 7 50 9 60 2 11 7 42 10 69 4 27 9
52 10 55 2 3 7 31 10 62 4 31 8 66 11 77 2 11 6 37 9 58 4 22 11 66 16 99 5
33 12 78 15 100 3 22 8 51 10 65 5 28 13 79 19 125 3 17 18 113 35 215 16 102
32 203 36 225 3 22 10 65 15 95 5 30 11 71 14 90 3 19 14 91 25 160 12 69 23
143 26 165 3 22 10 63 15 90 5 28 12 68 15 90 9 63 41 272 49 315 3 14 7 41
10 60 3 19 12 76 20 125 8 50 17 106 20 125 5 33 42 264 51 320 2 14 7 41 10
60 3 19 10 60 15 90 5 30 12 73 15 95 3 23 7 50 9 62 3 11 7 38 10 59 3 22 8
50 11 64 2 14 7 43 10 65 3 22 8 51 10 65 2 14 11 66 19 115 8 50 18 110 21
135 3 25 24 153 46 285 21 132 42 258 45 280 4 22 8 49 10 60 2 10 6 37 9 60
4 22 12 76 20 120 7 44 16 100 20 125 3 25 8 56 10 70 3 14 7 40 10 58 3 17 8
47 11 65 3 17 7 41 9 52 8 60 18 120 31 200 8 50 17 101 19 115 2 14 11 66 19
115 8 50 17 108 20 130 4 22 8 51 11 65 2 14 7 42 10 63 12 83 17 115 30 192
8 44 17 98 20 120 6 40 7 51 25 155 5 30 11 71 14 90 3 19 15 94 26 165 12 72
23 144 26 160 2 17 6 41 9 55 2 14 7 45 10 70 3 25 8 52 10 60 2 8 6 33 10 55
3 22 12 83 21 135 8 52 17 106 19 119 2 13 7 45 11 70 4 25 8 55 11 66 4 20 7
42 18 118 3 23 8 49 10 57 2 8 6 33 10 55 7 52 34 224 50 320 2 11 6 38 10 60
3 22 10 65 15 95 11 65 17 101 25 155 3 23 8 52 10 65 6 31 11 61 20 120 13
87 16 105 20 120 2 8 7 40 10 70 4 30 8 57 10 60 2 3 6 30 10 60 3 30 10 73
15 95 5 22 11 63 15 90 4 28 9 59 10 70 2 11 6 38 10 60 3 22 8 51 10 65 3 14
7 39 9 55 3 17 14 84 25 150 11 66 22 140 26 165 3 25 13 86 21 135 8 50 17
104 20 120 2 17 11 71 19 120 8 50 24 149 36 220 11 72 22 141 24 155 37 226
46 281 51 314 3 21 7 48 10 59 2 12 6 39 9 62 4 22 17 105 30 185 13 80 26
163 29 185 3 22 8 51 11 65 14 76 17 115 16 208 -2 291 -137 508 -399 641
-109 56 -291 79 -427 55z"/>
</g>
</svg>
