<svg xmlns="http://www.w3.org/2000/svg" viewBox="0 0 64 64" aria-labelledby="title"
aria-describedby="desc" role="img" xmlns:xlink="http://www.w3.org/1999/xlink">
  <title>Windows</title>
  <desc>A line styled icon from Orion Icon Library.</desc>
  <path data-name="layer2"
  d="M2 29.781V10.749a.25.25 0 0 1 .216-.248l23.5-3.213a.25.25 0 0 1 .284.248v22.245a.25.25 0 0 1-.25.25H2.25a.25.25 0 0 1-.25-.25z"
  fill="none" stroke="#202020" stroke-linecap="round" stroke-miterlimit="10"
  stroke-width="2" stroke-linejoin="round"></path>
  <path data-name="layer1" d="M30.245 6.656l31.469-4.614a.25.25 0 0 1 .286.247v27.492a.25.25 0 0 1-.25.25H30.281a.25.25 0 0 1-.25-.25V6.9a.25.25 0 0 1 .214-.244z"
  fill="none" stroke="#202020" stroke-linecap="round" stroke-miterlimit="10"
  stroke-width="2" stroke-linejoin="round"></path>
  <path data-name="layer2" d="M62 34.219v27.493a.25.25 0 0 1-.285.248l-31.469-4.43a.25.25 0 0 1-.215-.248V34.219a.25.25 0 0 1 .25-.25H61.75a.25.25 0 0 1 .25.25z"
  fill="none" stroke="#202020" stroke-linecap="round" stroke-miterlimit="10"
  stroke-width="2" stroke-linejoin="round"></path>
  <path data-name="layer1" d="M25.715 56.991l-23.5-3.3A.25.25 0 0 1 2 53.439v-19.22a.25.25 0 0 1 .25-.25h23.5a.25.25 0 0 1 .25.25v22.525a.25.25 0 0 1-.285.247z"
  fill="none" stroke="#202020" stroke-linecap="round" stroke-miterlimit="10"
  stroke-width="2" stroke-linejoin="round"></path>
</svg>