<?xml version="1.0" encoding="iso-8859-1"?>
<!-- Generator: Adobe Illustrator 19.0.0, SVG Export Plug-In . SVG Version: 6.00 Build 0)  -->
<svg version="1.1" id="Capa_1" xmlns="http://www.w3.org/2000/svg" xmlns:xlink="http://www.w3.org/1999/xlink" x="0px" y="0px"
	 viewBox="0 0 512.001 512.001" style="enable-background:new 0 0 512.001 512.001;" xml:space="preserve">
<g>
	<g>
		<path d="M512.001,156.177c0-28.802-21.533-52.669-49.345-56.351V60.853c0-6.481-5.272-11.754-11.755-11.754h-76.854
			c-4.143,0-7.5,3.358-7.5,7.5s3.357,7.5,7.5,7.5h73.607v42.733c0,4.142,3.357,7.5,7.5,7.5c23.072,0,41.844,18.771,41.844,41.844
			s-18.771,41.844-41.844,41.844c-4.143,0-7.5,3.358-7.5,7.5v42.312h-38.969c-5.943,0-10.942,4.668-11.379,10.626
			c-1.6,21.711-19.93,38.718-41.731,38.718c-21.801,0-40.13-17.007-41.73-38.716c-0.437-5.959-5.435-10.628-11.379-10.628h-38.969
			v-35.724c27.924-3.699,49.345-27.841,49.345-56.352c0-28.508-21.417-52.652-49.345-56.352V64.1h75.546c4.143,0,7.5-3.358,7.5-7.5
			s-3.357-7.5-7.5-7.5c-0.599,0-83.186-0.021-83.782,0.037c-2.184-0.634,0.256-0.458-42.694-0.458
			c-4.273-27.588-27.871-48.011-56.147-48.011c-28.277,0-51.873,20.422-56.147,48.011H60.757c-6.293,0-11.413,5.119-11.413,11.413
			c0,12.627,0,230.87,0,238.468C21.42,302.259,0,326.4,0,354.911c0,28.511,21.42,52.653,49.344,56.352v39.313
			c0,6.292,5.119,11.413,11.413,11.413c17.916,0,231.539,0,238.468,0c3.698,27.924,27.841,49.344,56.352,49.344
			c28.512,0,52.652-21.418,56.353-49.344h39.313c6.293,0,11.413-5.119,11.413-11.412v-73.846c0-4.142-3.357-7.5-7.5-7.5
			s-7.5,3.358-7.5,7.5v70.257h-38.969c-5.943,0-10.942,4.668-11.379,10.626c-1.6,21.711-19.93,38.718-41.731,38.718
			c-21.801,0-40.13-17.007-41.729-38.716c-0.437-5.959-5.435-10.628-11.379-10.628H263.5v-42.733c0-4.142-3.357-7.5-7.5-7.5
			c-23.072,0-41.844-18.771-41.844-41.844c0-23.072,18.771-41.844,41.844-41.844c4.143,0,7.5-3.358,7.5-7.5v-42.312h35.725
			c3.699,27.924,27.841,49.344,56.352,49.344c28.512,0,52.652-21.418,56.353-49.344h35.725v78.473c0,4.142,3.357,7.5,7.5,7.5
			s7.5-3.358,7.5-7.5c0-88.581,0.08-82.893-0.172-84.386c0.246-1.138,0.172,1.907,0.172-44.814
			C490.469,208.847,512.001,184.979,512.001,156.177z M248.499,298.56c-27.812,3.682-49.344,27.551-49.344,56.352
			c0,28.802,21.532,52.67,49.344,56.352v35.725H64.345V408.02c0-5.941-4.667-10.94-10.625-11.379
			c-21.711-1.6-38.719-19.929-38.719-41.73c0-21.801,17.008-40.13,38.719-41.73c5.957-0.438,10.625-5.436,10.625-11.378v-38.969
			h42.733c4.143,0,7.5-3.358,7.5-7.5c0-23.072,18.772-41.844,41.845-41.844s41.844,18.771,41.844,41.844c0,4.142,3.357,7.5,7.5,7.5
			h42.733V298.56z M259.125,197.485c-5.959,0.439-10.626,5.438-10.626,11.379v38.969h-35.726
			c-3.682-27.812-27.55-49.344-56.351-49.344c-28.802,0-52.67,21.532-56.352,49.344H64.345V63.679h39.1
			c5.892,0,10.774-4.445,11.355-10.34c2.122-21.476,20.016-37.671,41.623-37.671c21.606,0,39.5,16.195,41.622,37.67
			c0.581,5.895,5.463,10.341,11.355,10.341h39.099v38.969c0,5.941,4.667,10.94,10.626,11.379
			c21.537,1.585,38.718,19.793,38.718,41.729C297.843,177.557,280.836,195.886,259.125,197.485z"/>
	</g>
</g>
<g>
</g>
<g>
</g>
<g>
</g>
<g>
</g>
<g>
</g>
<g>
</g>
<g>
</g>
<g>
</g>
<g>
</g>
<g>
</g>
<g>
</g>
<g>
</g>
<g>
</g>
<g>
</g>
<g>
</g>
</svg>
