<?xml version="1.0" encoding="iso-8859-1"?>
<!-- Generator: Adobe Illustrator 19.0.0, SVG Export Plug-In . SVG Version: 6.00 Build 0)  -->
<svg version="1.1" id="Capa_1" xmlns="http://www.w3.org/2000/svg" xmlns:xlink="http://www.w3.org/1999/xlink" x="0px" y="0px"
	 viewBox="0 0 512.001 512.001" style="enable-background:new 0 0 512.001 512.001;" xml:space="preserve">
<g>
	<g>
		<path d="M507.564,200.853l-57.737-68.66c-2.674-3.179-7.418-3.589-10.597-0.916c-3.179,2.673-3.589,7.418-0.916,10.597
			l57.736,68.659c1.387,1.65,1.173,4.12-0.477,5.507l-103.225,86.804l-25.324-30.114c4.812-4.046,14.045-10.472,15.275-24.705
			c2.371-27.432-29.765-44.105-50.834-26.393l-4.341,3.651l-25.322-30.114c38.054-32,37.436-30.522,37.794-34.66
			c0.171-1.987-0.453-3.961-1.737-5.488l-8.491-10.097c-5.662-6.734-4.79-16.818,1.942-22.481c6.732-5.663,16.818-4.79,22.481,1.943
			l8.491,10.097c1.284,1.526,3.122,2.481,5.108,2.653c1.983,0.168,3.961-0.453,5.488-1.737l35.142-29.551l13.218,15.718
			c2.673,3.178,7.417,3.589,10.597,0.916c3.179-2.673,3.589-7.418,0.916-10.597l-18.058-21.475
			c-2.674-3.179-7.418-3.589-10.597-0.916l-35.141,29.551l-3.65-4.341c-11.001-13.082-30.592-14.775-43.675-3.775
			c-13.08,11.001-14.772,30.593-3.773,43.674l3.651,4.341l-35.14,29.551c-3.179,2.674-3.589,7.418-0.916,10.597
			c37.726,44.866,35.909,43.917,40.112,44.28c3.998,0.338,5.112-1.421,15.586-10.229c10.839-9.115,27.385-0.531,26.166,13.585
			c-0.698,8.083-5.481,10.715-15.726,19.329c-3.177,2.672-3.589,7.418-0.917,10.597c37.728,44.865,35.91,43.916,40.114,44.28
			c4.34,0.374-3.112,5.495,114.468-93.381C513.252,220.83,514.288,208.853,507.564,200.853z"/>
	</g>
</g>
<g>
	<g>
		<path d="M318.977,255.404h-46.866v-5.673c0-17.092-13.906-30.997-30.998-30.997s-30.998,13.905-30.998,30.997v5.673h-39.345
			V209.49c0-4.154-3.367-7.521-7.521-7.521h-13.193c-8.798,0-15.956-7.157-15.956-15.955c0-8.798,7.158-15.956,15.956-15.956h13.193
			c4.154,0,7.521-3.367,7.521-7.521v-53.435c0-4.154-3.367-7.521-7.521-7.521h-36.56c-4.154,0-7.521,3.367-7.521,7.521
			c0,4.154,3.367,7.521,7.521,7.521h29.039v38.393h-5.672c-17.092,0-30.998,13.906-30.998,30.998s13.906,30.997,30.998,30.997h5.672
			v38.393h-46.866c-4.154,0-7.521,3.367-7.521,7.521v13.193c0,8.798-7.158,15.956-15.956,15.956
			c-8.798,0-15.956-7.158-15.956-15.956v-13.193c0-4.154-3.367-7.521-7.521-7.521H15.042V120.532c0-2.155,1.754-3.909,3.908-3.909
			h78.658c4.154,0,7.521-3.367,7.521-7.521c0-4.154-3.367-7.521-7.521-7.521H18.95C8.502,101.58,0,110.082,0,120.532
			c0,12.514,0,272.296,0,284.785c0,10.449,8.502,18.951,18.95,18.951c12.659,0,275.938,0,288.596,0
			c10.449,0,18.951-8.502,18.951-18.951V262.925C326.498,258.771,323.13,255.404,318.977,255.404z M155.728,363.311v45.915H18.95
			c-2.155,0-3.908-1.754-3.908-3.909V270.446h39.345v5.672c0,17.092,13.906,30.998,30.998,30.998s30.998-13.906,30.998-30.998
			v-5.672h39.345v45.913c0,4.154,3.367,7.521,7.521,7.521h13.193c8.798,0,15.956,7.158,15.956,15.956
			c0,8.798-7.158,15.955-15.956,15.955h-13.193C159.095,355.79,155.728,359.158,155.728,363.311z M307.547,409.226H170.77v-38.394
			h5.672c17.092,0,30.998-13.905,30.998-30.997c0-17.092-13.906-30.998-30.998-30.998h-5.672v-38.392h46.866
			c4.154,0,7.521-3.367,7.521-7.521v-13.194c0-8.798,7.158-15.955,15.956-15.955s15.956,7.157,15.956,15.955v13.194
			c0,4.154,3.367,7.521,7.521,7.521h46.866v134.872h0.001C311.456,407.472,309.702,409.226,307.547,409.226z"/>
	</g>
</g>
<g>
</g>
<g>
</g>
<g>
</g>
<g>
</g>
<g>
</g>
<g>
</g>
<g>
</g>
<g>
</g>
<g>
</g>
<g>
</g>
<g>
</g>
<g>
</g>
<g>
</g>
<g>
</g>
<g>
</g>
</svg>
