<svg viewBox="0 0 512 512" xmlns="http://www.w3.org/2000/svg"><path d="m448.125 266.75c5.503906 0 9.980469-4.449219 10-9.960938v-.789062c0-5.523438-4.476562-10-10-10s-10 4.476562-10 10v.710938c-.019531 5.523437 4.4375 10.019531 9.960938 10.039062zm0 0"/><path d="m437.019531 74.980469c-48.351562-48.351563-112.640625-74.980469-181.019531-74.980469-5.523438 0-10 4.476562-10 10v53.871094c0 5.523437 4.476562 10 10 10 83.328125 0 155.898438 56.3125 176.480469 136.9375 1.363281 5.351562 6.8125 8.582031 12.160156 7.214844 5.351563-1.363282 8.582031-6.808594 7.21875-12.160157-22.019531-86.25-97.621094-147.429687-185.859375-151.746093v-33.90625c125.507812 5.257812 226 109.011718 226 235.789062 0 130.132812-105.867188 236-236 236s-236-105.867188-236-236c0-63.035156 24.546875-122.300781 69.121094-166.878906 3.90625-3.902344 3.90625-10.234375 0-14.140625l-.980469-.980469h43.859375v43.855469l-4.785156-4.78125c-1.875-1.875-4.417969-2.929688-7.070313-2.929688-2.652343 0-5.195312 1.054688-7.070312 2.929688-38.175781 38.179687-59.203125 88.9375-59.203125 142.925781 0 111.453125 90.675781 202.128906 202.128906 202.128906 91.660156 0 172.023438-61.816406 195.425781-150.328125 1.410157-5.339843-1.773437-10.8125-7.113281-12.222656-5.34375-1.414063-10.8125 1.769531-12.222656 7.109375-21.085938 79.746094-93.496094 135.441406-176.089844 135.441406-100.425781 0-182.128906-81.703125-182.128906-182.128906 0-45.300781 16.429687-88.074219 46.464844-121.523438l14.59375 14.59375c2.859374 2.859376 7.164062 3.714844 10.898437 2.167969s6.171875-5.191406 6.171875-9.238281v-78c0-5.523438-4.476562-10-10-10h-78c-4.042969 0-7.691406 2.4375-9.238281 6.171875-1.546875 3.738281-.691407 8.039063 2.167969 10.898437l11.113281 11.117188c-43.957031 47.441406-68.042969 108.777344-68.042969 173.8125 0 68.378906 26.628906 132.667969 74.980469 181.019531 48.351562 48.351563 112.640625 74.980469 181.019531 74.980469s132.667969-26.628906 181.019531-74.980469c48.351563-48.351562 74.980469-112.640625 74.980469-181.019531s-26.628906-132.667969-74.980469-181.019531zm0 0"/><path d="m185.5 386h141c13.878906 0 25.167969-11.289062 25.167969-25.167969v-9.664062c0-11.996094-8.441407-22.054688-19.695313-24.5625-2.441406-27.820313-16.332031-53.394531-38.09375-70.605469 21.761719-17.210938 35.652344-42.785156 38.09375-70.605469 11.253906-2.507812 19.695313-12.5625 19.695313-24.5625v-9.664062c0-13.878907-11.289063-25.167969-25.167969-25.167969h-31c-5.523438 0-10 4.476562-10 10s4.476562 10 10 10h31c2.847656 0 5.167969 2.316406 5.167969 5.167969v9.664062c0 2.851563-2.320313 5.167969-5.167969 5.167969h-141c-2.847656 0-5.167969-2.316406-5.167969-5.167969v-9.664062c0-2.851563 2.320313-5.167969 5.167969-5.167969h31c5.523438 0 10-4.476562 10-10s-4.476562-10-10-10h-31c-13.878906 0-25.167969 11.289062-25.167969 25.167969v9.664062c0 11.996094 8.441407 22.054688 19.695313 24.5625 2.441406 27.820313 16.332031 53.394531 38.09375 70.605469-21.761719 17.210938-35.652344 42.785156-38.09375 70.605469-11.253906 2.507812-19.695313 12.5625-19.695313 24.5625v9.664062c0 13.878907 11.289063 25.167969 25.167969 25.167969zm146.167969-25.167969c0 2.851563-2.320313 5.167969-5.167969 5.167969h-141c-2.847656 0-5.167969-2.316406-5.167969-5.167969v-9.664062c0-2.851563 2.320313-5.167969 5.167969-5.167969h141c2.851562 0 5.167969 2.316406 5.167969 5.167969zm-90.75-96.125c3.140625-1.773437 5.082031-5.101562 5.082031-8.707031s-1.941406-6.933594-5.082031-8.707031c-22.699219-12.820313-37.730469-35.746094-40.726563-61.292969h111.617188c-2.996094 25.546875-18.027344 48.472656-40.726563 61.292969-3.140625 1.773437-5.082031 5.101562-5.082031 8.707031s1.941406 6.933594 5.082031 8.707031c22.699219 12.820313 37.730469 35.746094 40.726563 61.292969h-111.617188c2.996094-25.546875 18.027344-48.472656 40.726563-61.292969zm0 0"/><path d="m263.070312 143.070312c1.859376-1.859374 2.929688-4.441406 2.929688-7.070312s-1.070312-5.210938-2.929688-7.070312c-1.859374-1.859376-4.441406-2.929688-7.070312-2.929688s-5.210938 1.070312-7.070312 2.929688c-1.859376 1.859374-2.929688 4.441406-2.929688 7.070312s1.070312 5.210938 2.929688 7.070312c1.859374 1.859376 4.441406 2.929688 7.070312 2.929688s5.210938-1.070312 7.070312-2.929688zm0 0"/></svg>